<?xml version="1.0" standalone="no"?>
<!DOCTYPE svg PUBLIC "-//W3C//DTD SVG 20010904//EN"
 "http://www.w3.org/TR/2001/REC-SVG-20010904/DTD/svg10.dtd">
<svg version="1.0" xmlns="http://www.w3.org/2000/svg"
 width="591.000000pt" height="1139.000000pt" viewBox="0 0 591.000000 1139.000000"
 preserveAspectRatio="xMidYMid meet">

<g transform="translate(0.000000,1139.000000) scale(0.100000,-0.100000)"
fill="#000000" stroke="none">
<path d="M1895 11379 c-341 -15 -707 -37 -975 -60 -385 -32 -632 -144 -722
-327 l-33 -67 -3 -807 c-3 -797 -3 -808 -22 -808 -20 0 -20 -11 -20 -880 0
-873 0 -880 20 -880 20 0 20 -7 20 -3342 0 -2388 3 -3360 11 -3407 6 -36 26
-98 45 -138 118 -248 458 -359 1244 -404 281 -16 2221 -23 2674 -10 210 7 435
16 501 21 701 58 978 170 1087 439 l23 56 3 4258 c2 4245 2 4257 22 4257 20 0
20 7 20 365 0 356 0 365 -20 365 -19 0 -19 11 -22 473 l-3 472 -25 50 c-69
141 -244 244 -493 289 -120 23 -586 56 -1137 81 -343 16 -1857 19 -2195 4z
m3625 -5484 l0 -4575 -2570 0 -2570 0 0 4575 0 4575 2570 0 2570 0 0 -4575z"/>
</g>
</svg>
